<?xml version="1.0" encoding="UTF-8" standalone="no" ?>
<!DOCTYPE svg PUBLIC "-//W3C//DTD SVG 1.1//EN" "http://www.w3.org/Graphics/SVG/1.1/DTD/svg11.dtd">
<svg xmlns="http://www.w3.org/2000/svg" xmlns:xlink="http://www.w3.org/1999/xlink" version="1.1" width="1080" height="1080" viewBox="0 0 1080 1080" xml:space="preserve">
<desc>Created with Fabric.js 5.2.4</desc>
<defs>
</defs>
<rect x="0" y="0" width="100%" height="100%" fill="transparent"></rect>
<g transform="matrix(1 0 0 1 540 540)" id="da0bde71-8669-45bb-a1da-75b92d4f26c8"  >
</g>
<g transform="matrix(1 0 0 1 540 540)" id="fb9600e1-5f05-4a94-97d8-6e932fe79f7e"  >
<rect style="stroke: none; stroke-width: 1; stroke-dasharray: none; stroke-linecap: butt; stroke-dashoffset: 0; stroke-linejoin: miter; stroke-miterlimit: 4; fill: rgb(255,255,255); fill-rule: nonzero; opacity: 1; visibility: hidden;" vector-effect="non-scaling-stroke"  x="-540" y="-540" rx="0" ry="0" width="1080" height="1080" />
</g>
<g transform="matrix(44.82 0 0 44.82 1966.95 540)"  >
<path style="stroke: none; stroke-width: 0; stroke-dasharray: none; stroke-linecap: butt; stroke-dashoffset: 0; stroke-linejoin: miter; stroke-miterlimit: 4; fill: rgb(30,215,96); fill-rule: nonzero; opacity: 1;"  transform=" translate(-44.82, -12)" d="M 13.427 0.01 C 6.805 -0.253 1.224 4.902 0.961 11.524 C 0.698 18.147 5.853 23.728 12.476 23.99 C 19.098 24.253 24.679000000000002 19.098 24.942 12.475999999999999 C 25.205 5.853999999999999 20.049 0.272 13.427 0.01 M 18.493 17.589000000000002 C 18.296982042244064 17.93249714623044 17.85984453395833 18.052407946865625 17.516 17.857000000000003 C 15.929535169077148 16.954289377354897 14.18591044373784 16.361429822047814 12.377999999999988 16.11 C 10.570991785304749 15.853393826559492 8.731674113581768 15.942644850113577 6.957999999999984 16.373000000000008 C 6.581992222664248 16.44596926369578 6.215028981743133 16.210521804694917 6.124651084677573 15.83831460731249 C 6.034273187612012 15.466107409930064 6.252398921036825 15.088590932733137 6.619999999999997 14.981000000000005 C 8.569999999999999 14.507000000000005 10.575 14.410000000000005 12.578 14.691000000000006 C 14.581 14.973000000000006 16.480999999999998 15.619000000000007 18.225 16.611000000000004 C 18.390239027512468 16.705143232703175 18.51130781765107 16.86107628730846 18.561568541185586 17.044490420206817 C 18.611829264720107 17.227904553105173 18.58716412431909 17.423772877019882 18.493000000000002 17.589000000000006 M 20.07 14.439000000000005 C 19.95273025590374 14.65643682081142 19.753766019461114 14.818279672743007 19.517006517133574 14.888819746336631 C 19.280247014806037 14.959359819930256 19.025150083856484 14.932799851468923 18.808 14.815000000000005 C 16.950205643972705 13.810617390155276 14.927656112447783 13.146820156098201 12.835999999999991 12.855 C 10.744901152850648 12.558976383343479 8.61770090224135 12.639580373097496 6.554999999999984 13.093000000000004 C 6.3136145032482 13.14652006417984 6.060852956291519 13.101716649959338 5.852569337307685 12.968490190969678 C 5.644285718323849 12.835263731980017 5.497626607807308 12.62458186078972 5.4449999999999985 12.383000000000003 C 5.391479935820162 12.141614503248203 5.436283350040664 11.888852956291524 5.5695098090303246 11.68056933730769 C 5.702736268019984 11.472285718323855 5.913418139210281 11.325626607807314 6.154999999999998 11.273000000000003 C 8.434019990731208 10.771103635993635 10.784625587007133 10.682363194174572 13.095000000000002 11.011000000000003 C 15.406494416700086 11.331983038728023 17.641603287696853 12.065277584220977 19.694 13.176000000000002 C 20.146 13.421000000000001 20.314 13.986000000000002 20.07 14.439000000000002 M 21.818 10.888000000000002 C 21.525593759656466 11.449378612220235 20.833706978879267 11.667774956993373 20.272000000000002 11.376000000000001 C 18.108627221415077 10.251261595196343 15.768948772496492 9.504512532575317 13.354000000000006 9.168 C 10.93975539493157 8.8255826859133 8.484746595075473 8.898296130185107 6.094999999999993 9.383000000000001 C 5.478677912843882 9.500171509780436 4.882701099023221 9.100000463130392 4.757876133834862 8.485182761785978 C 4.633051168646503 7.870365060441563 5.0257817208611675 7.269459125584881 5.639000000000002 7.1370000000000005 C 8.283803045002083 6.600164850258767 11.00086798448362 6.518997861775372 13.672999999999988 6.896999999999995 C 16.34592831781212 7.270084340758758 18.935496322206962 8.096973954281728 21.33000000000001 9.342000000000004 C 21.891000000000002 9.634 22.110000000000003 10.326 21.818 10.888 M 35.43 10.852 L 34.598 10.605 C 32.928 10.110000000000001 32.458 9.924 32.458 9.252 C 32.458 8.615 33.166 7.925000000000001 34.722 7.925000000000001 C 36.261 7.925000000000001 37.561 8.677000000000001 38.232 9.235000000000001 C 38.348 9.331000000000001 38.472 9.287 38.472 9.137 L 38.472 6.935 C 38.472 6.837999999999999 38.445 6.784999999999999 38.374 6.731999999999999 C 37.544000000000004 6.111999999999999 36.102000000000004 5.661999999999999 34.651 5.661999999999999 C 31.698000000000004 5.661999999999999 29.929000000000002 7.341999999999999 29.929000000000002 9.251999999999999 C 29.929000000000002 11.408999999999999 31.3 12.161999999999999 33.555 12.797999999999998 L 34.528 13.072 C 36.217 13.549999999999999 36.525999999999996 13.973999999999998 36.525999999999996 14.628 C 36.525999999999996 15.725 35.69499999999999 16.061 34.455999999999996 16.061 C 32.9 16.061 30.998999999999995 15.15 30.105999999999995 14.036 C 30.025999999999996 13.937999999999999 29.928999999999995 13.982999999999999 29.928999999999995 14.097999999999999 L 29.928999999999995 16.521 C 29.928999999999995 16.618000000000002 29.938999999999997 16.662 30.008999999999993 16.741 C 30.751999999999992 17.555 32.528999999999996 18.271 34.59899999999999 18.271 C 37.14499999999999 18.271 39.05499999999999 16.786 39.05499999999999 14.487000000000002 C 39.05499999999999 12.700000000000003 38.00299999999999 11.622000000000002 35.42999999999999 10.852000000000002 M 45.53699999999999 9.092000000000002 C 43.85699999999999 9.092000000000002 42.88399999999999 10.118000000000002 42.31799999999999 11.144000000000002 L 42.31799999999999 9.376 C 42.31799999999999 9.296 42.273999999999994 9.251999999999999 42.19399999999999 9.251999999999999 L 39.97399999999999 9.251999999999999 C 39.89499999999999 9.251999999999999 39.85099999999999 9.296 39.85099999999999 9.376 L 39.85099999999999 20.72 C 39.85099999999999 20.799999999999997 39.89499999999999 20.843999999999998 39.974999999999994 20.843999999999998 L 42.19499999999999 20.843999999999998 C 42.273999999999994 20.843999999999998 42.31799999999999 20.799999999999997 42.31799999999999 20.72 L 42.31799999999999 16.183999999999997 C 42.88399999999999 17.208999999999996 43.83899999999999 18.217999999999996 45.55499999999999 18.217999999999996 C 47.818999999999996 18.217999999999996 49.44499999999999 16.262999999999998 49.44499999999999 13.636999999999997 C 49.44499999999999 11.010999999999996 47.800999999999995 9.091999999999997 45.53699999999999 9.091999999999997 M 44.88299999999999 16.077999999999996 C 43.697999999999986 16.077999999999996 42.67199999999999 14.910999999999996 42.264999999999986 13.619999999999996 C 42.67199999999998 12.257999999999996 43.60899999999999 11.214999999999996 44.88299999999999 11.214999999999996 C 46.09399999999999 11.214999999999996 46.93399999999999 12.134999999999996 46.93399999999999 13.637999999999996 C 46.93399999999999 15.140999999999996 46.09399999999999 16.077999999999996 44.88299999999999 16.077999999999996 M 85.51599999999999 9.251999999999995 L 83.252 9.251999999999995 C 83.172 9.251999999999995 83.137 9.268999999999995 83.10199999999999 9.348999999999995 L 80.82 14.831999999999994 L 78.52999999999999 9.348999999999993 C 78.49499999999999 9.268999999999993 78.46 9.251999999999994 78.37999999999998 9.251999999999994 L 74.71899999999998 9.251999999999994 L 74.71899999999998 8.667999999999994 C 74.71899999999998 7.712999999999994 75.36399999999998 7.270999999999994 76.19499999999998 7.270999999999994 C 76.69099999999997 7.270999999999994 77.22999999999998 7.526999999999994 77.60999999999999 7.7569999999999935 C 77.69899999999998 7.809999999999993 77.75999999999999 7.7489999999999934 77.72499999999998 7.668999999999993 L 76.92899999999997 5.767999999999994 C 76.90502213288258 5.7101868398795 76.86099420737249 5.662963339130759 76.80499999999998 5.634999999999994 C 76.41599999999998 5.431999999999993 75.77999999999997 5.254999999999994 75.16099999999997 5.254999999999994 C 73.28599999999997 5.254999999999994 72.20699999999998 6.686999999999994 72.20699999999998 8.508999999999993 L 72.20699999999998 9.251999999999994 L 70.70399999999998 9.251999999999994 C 70.62399999999998 9.251999999999994 70.57999999999998 9.295999999999994 70.57999999999998 9.375999999999994 L 70.57999999999998 11.143999999999995 C 70.57999999999998 11.223999999999995 70.62399999999998 11.267999999999995 70.70399999999998 11.267999999999995 L 72.20699999999998 11.267999999999995 L 72.20699999999998 17.935999999999996 C 72.20699999999998 18.015999999999995 72.25099999999998 18.058999999999997 72.33099999999997 18.058999999999997 L 74.59499999999997 18.058999999999997 C 74.67499999999997 18.058999999999997 74.71899999999997 18.014999999999997 74.71899999999997 17.935999999999996 L 74.71899999999997 11.267999999999997 L 76.65499999999997 11.267999999999997 L 79.46699999999997 17.377999999999997 L 77.95499999999997 20.702999999999996 C 77.91099999999997 20.800999999999995 77.96399999999997 20.844999999999995 78.05199999999996 20.844999999999995 L 80.46599999999997 20.844999999999995 C 80.54599999999996 20.844999999999995 80.58199999999997 20.826999999999995 80.61599999999997 20.747999999999994 L 85.61299999999997 9.392999999999994 C 85.64799999999997 9.312999999999994 85.60399999999997 9.251999999999994 85.51599999999998 9.251999999999994 M 54.964 9.04 C 52.099 9.04 50.126999999999995 11.065 50.126999999999995 13.655999999999999 C 50.126999999999995 16.229 52.098 18.272 54.964 18.272 C 57.82 18.272 59.81 16.229 59.81 13.655999999999999 C 59.81 11.064999999999998 57.82 9.04 54.964 9.04 M 54.972 16.105 C 53.602000000000004 16.105 52.629000000000005 15.062000000000001 52.629000000000005 13.655000000000001 C 52.629000000000005 12.250000000000002 53.602000000000004 11.206000000000001 54.97200000000001 11.206000000000001 C 56.33400000000001 11.206000000000001 57.30700000000001 12.249 57.30700000000001 13.656000000000002 C 57.30700000000001 15.062000000000003 56.33400000000001 16.106 54.97200000000001 16.106 M 88.513 9.772000000000002 C 88.39862349085189 9.57337877575441 88.2314353231194 9.410344351319626 88.03 9.301000000000002 C 87.81756060835431 9.185428781080022 87.5788058320488 9.126859788335526 87.337 9.131000000000002 Q 86.953 9.131000000000002 86.644 9.301000000000002 C 86.44219656325421 9.410195911593766 86.27464855775926 9.57324366074278 86.16000000000001 9.772000000000002 Q 85.986 10.074000000000002 85.986 10.453000000000003 Q 85.986 10.828000000000003 86.16000000000001 11.130000000000003 Q 86.33500000000001 11.430000000000003 86.644 11.601000000000003 Q 86.953 11.772000000000002 87.337 11.771000000000003 Q 87.721 11.770000000000003 88.03 11.601000000000003 Q 88.339 11.432000000000002 88.513 11.130000000000003 Q 88.68700000000001 10.828000000000003 88.688 10.454000000000002 Q 88.688 10.074000000000002 88.513 9.772000000000002 M 88.302 11.019000000000002 C 88.21004596058324 11.1835338084712 88.0734635248945 11.318729620447357 87.908 11.409000000000002 C 87.73301175621236 11.504352081095819 87.53624853573542 11.552595252491214 87.337 11.549000000000003 C 87.1361154595592 11.5530055812843 86.93763503525317 11.50476381148769 86.76100000000001 11.409000000000002 C 86.59664253482293 11.318278994325382 86.46114159731573 11.183124606530487 86.37 11.019000000000002 C 86.27505946049277 10.845658722830658 86.22681484870324 10.65061264945302 86.23 10.453000000000003 Q 86.23 10.137 86.37 9.891000000000002 Q 86.51 9.645000000000003 86.76100000000001 9.503000000000002 Q 87.01200000000001 9.361 87.337 9.363000000000001 Q 87.657 9.363000000000001 87.907 9.503000000000002 Q 88.16 9.644000000000002 88.30199999999999 9.893000000000002 Q 88.44399999999999 10.142000000000003 88.44399999999999 10.458000000000002 Q 88.44399999999999 10.770000000000001 88.30199999999999 11.018000000000002 M 68.46699999999998 5.238000000000002 C 67.61699999999999 5.238000000000002 66.99899999999998 5.838000000000002 66.99899999999998 6.634000000000002 C 66.99899999999998 7.430000000000002 67.61799999999998 8.031000000000002 68.46699999999998 8.031000000000002 C 69.33299999999998 8.031000000000002 69.95199999999998 7.431000000000003 69.95199999999998 6.634000000000002 C 69.95199999999998 5.838000000000002 69.33299999999998 5.237000000000002 68.46699999999998 5.237000000000002 M 87.79599999999999 10.427000000000003 C 87.88191398260909 10.367784152654714 87.93227376458768 10.269319504308532 87.92999999999999 10.165000000000003 Q 87.92999999999999 9.997000000000003 87.79799999999999 9.899000000000003 Q 87.66599999999998 9.800000000000002 87.41699999999999 9.800000000000002 L 86.829 9.800000000000002 L 86.829 11.029000000000003 L 87.113 11.029000000000003 L 87.113 10.540000000000003 L 87.267 10.540000000000003 L 87.64099999999999 11.029000000000003 L 87.99099999999999 11.029000000000003 L 87.58099999999999 10.511000000000003 C 87.65823735077295 10.50015225701585 87.73186587584665 10.471385763498684 87.79599999999999 10.427000000000003 M 87.37199999999999 10.318000000000003 L 87.11199999999998 10.318000000000003 L 87.11199999999998 10.018000000000002 L 87.38199999999998 10.018000000000002 Q 87.50199999999998 10.018000000000002 87.56599999999997 10.054000000000002 C 87.60906731824335 10.076030527830914 87.63469515610055 10.121766361545324 87.63099999999997 10.170000000000002 C 87.63229700608927 10.216919108509224 87.60611974846266 10.260287400995127 87.56399999999998 10.281000000000002 C 87.50404636610534 10.30902689884128 87.43807539073121 10.321740055554002 87.37199999999999 10.318000000000003 M 69.607 9.252 L 67.344 9.252 C 67.264 9.252 67.22 9.296000000000001 67.22 9.376000000000001 L 67.22 17.936 C 67.22 18.016 67.264 18.059 67.344 18.059 L 69.607 18.059 C 69.687 18.059 69.731 18.015 69.731 17.936 L 69.731 9.376 C 69.731 9.296 69.687 9.251999999999999 69.607 9.251999999999999 M 66.274 15.857 C 65.95153664303601 16.03333518053674 65.5884417639339 16.12195377876014 65.221 16.114 C 64.49600000000001 16.114 64.036 15.689 64.036 14.752 L 64.036 11.268 L 66.247 11.268 C 66.327 11.268 66.371 11.224 66.371 11.144 L 66.371 9.376 C 66.371 9.296 66.327 9.251999999999999 66.247 9.251999999999999 L 64.037 9.251999999999999 L 64.037 6.944 C 64.037 6.8469999999999995 63.974000000000004 6.794 63.88700000000001 6.864 L 59.93300000000001 9.977 C 59.88000000000001 10.021 59.86300000000001 10.065 59.86300000000001 10.137 L 59.86300000000001 11.144 C 59.86300000000001 11.224 59.907000000000004 11.268 59.986000000000004 11.268 L 61.525000000000006 11.268 L 61.525000000000006 15.123000000000001 C 61.525000000000006 17.21 62.72800000000001 18.183 64.44300000000001 18.183 C 65.186 18.183 65.903 17.989 66.32700000000001 17.741 C 66.38900000000001 17.706 66.397 17.671 66.397 17.608 L 66.397 15.928 C 66.397 15.840000000000002 66.35300000000001 15.813 66.274 15.858" stroke-linecap="round" />
</g>
<g transform="matrix(NaN NaN NaN NaN 0 0)"  >
<g style=""   >
</g>
</g>
</svg>