<?xml version="1.0" encoding="UTF-8" standalone="no"?>
<svg
   version="1.1"
   width="1000"
   height="1000"
   viewBox="0 0 1000 1000"
   xml:space="preserve"
   id="svg23"
   sodipodi:docname="Tidal.svg"
   inkscape:version="1.2.2 (b0a8486541, 2022-12-01)"
   xmlns:inkscape="http://www.inkscape.org/namespaces/inkscape"
   xmlns:sodipodi="http://sodipodi.sourceforge.net/DTD/sodipodi-0.dtd"
   xmlns="http://www.w3.org/2000/svg"
   xmlns:svg="http://www.w3.org/2000/svg"><sodipodi:namedview
   id="namedview25"
   pagecolor="#505050"
   bordercolor="#eeeeee"
   borderopacity="1"
   inkscape:showpageshadow="0"
   inkscape:pageopacity="0"
   inkscape:pagecheckerboard="0"
   inkscape:deskcolor="#505050"
   showgrid="false"
   inkscape:zoom="1.053"
   inkscape:cx="412.63058"
   inkscape:cy="500"
   inkscape:window-width="2560"
   inkscape:window-height="1339"
   inkscape:window-x="0"
   inkscape:window-y="0"
   inkscape:window-maximized="1"
   inkscape:current-layer="251604" />
<desc
   id="desc2">Created with Fabric.js 3.5.0</desc>
<defs
   id="defs4">
</defs>

<g
   transform="matrix(5.2407 0 0 5.2407 500.0032 500.0021)"
   id="251604">
<g
   style="fill:#ffffff;fill-opacity:1"
   id="g20"
   transform="matrix(1.0683372,0,0,1.0683368,-3.9693801e-4,-2.6564534e-4)">
		<g
   transform="matrix(6.2943,0,0,-6.2943,0.0014,-29.7683)"
   id="869873"
   style="fill:#ffffff;fill-opacity:1">
<path
   style="opacity:1;fill:#ffffff;fill-opacity:1;fill-rule:nonzero;stroke:none;stroke-width:1;stroke-linecap:butt;stroke-linejoin:miter;stroke-miterlimit:4;stroke-dasharray:none;stroke-dashoffset:0"
   transform="translate(4.7295,0.001)"
   d="M 0,0 -4.729,-4.73 -9.459,0 -4.729,4.728 Z"
   stroke-linecap="round"
   id="path8" />
</g>
		<g
   transform="matrix(6.2943,0,0,-6.2943,0.0014,29.7656)"
   id="756993"
   style="fill:#ffffff;fill-opacity:1">
<path
   style="opacity:1;fill:#ffffff;fill-opacity:1;fill-rule:nonzero;stroke:none;stroke-width:1;stroke-linecap:butt;stroke-linejoin:miter;stroke-miterlimit:4;stroke-dasharray:none;stroke-dashoffset:0"
   transform="translate(4.7295)"
   d="M 0,0 -4.729,-4.73 -9.459,0 -4.729,4.73 Z"
   stroke-linecap="round"
   id="path11" />
</g>
		<g
   transform="matrix(6.2943,0,0,-6.2943,-59.5356,-29.769)"
   id="87521"
   style="fill:#ffffff;fill-opacity:1">
<path
   style="opacity:1;fill:#ffffff;fill-opacity:1;fill-rule:nonzero;stroke:none;stroke-width:1;stroke-linecap:butt;stroke-linejoin:miter;stroke-miterlimit:4;stroke-dasharray:none;stroke-dashoffset:0"
   transform="translate(4.7295,5e-4)"
   d="M 0,0 -4.73,-4.73 -9.459,0 -4.73,4.729 Z"
   stroke-linecap="round"
   id="path14" />
</g>
		<g
   transform="matrix(6.2943,0,0,-6.2943,59.5352,-29.769)"
   id="549218"
   style="fill:#ffffff;fill-opacity:1">
<path
   style="opacity:1;fill:#ffffff;fill-opacity:1;fill-rule:nonzero;stroke:none;stroke-width:1;stroke-linecap:butt;stroke-linejoin:miter;stroke-miterlimit:4;stroke-dasharray:none;stroke-dashoffset:0"
   transform="translate(4.7295,5e-4)"
   d="M 0,0 -4.729,-4.73 -9.459,0 -4.729,4.729 Z"
   stroke-linecap="round"
   id="path17" />
</g>
</g>
</g>
</svg>
